<svg width="1440" height="437" viewBox="0 0 1440 437" fill="none" xmlns="http://www.w3.org/2000/svg">
<path fill-rule="evenodd" clip-rule="evenodd" d="M3.00165 22.4021C3.00165 22.0999 3.00166 21.7991 3.00166 21.5C53.8246 14.1967 157.673 7.7437 209.912 7.3767C247.073 7.09711 284.233 6.82698 321.414 6.55671L321.42 6.55667C357.444 6.2948 393.487 6.0328 429.568 5.7619C494.216 5.29017 542.121 4.0373 588.67 2.81988C643.522 1.38533 696.491 0 772.754 0C816.105 0 847.558 1.785 880.359 3.6464C906.489 5.12931 933.474 6.66072 968.01 7.37674C975.044 7.52543 984.471 7.28633 995.284 7.0121C1061.87 5.32339 1181 2.30205 1117.49 80.2906C1116.15 87.7958 1118.21 127.024 1120.7 161.934L1123.43 162.068C1155.85 163.653 1189.32 165.29 1232.16 166.056C1240.89 166.215 1252.58 165.959 1265.99 165.666C1331.18 164.241 1436.95 161.929 1439.94 201.994L1440 202V437H1.941e-07V227.485C-6.47254e-08 227.482 -6.46748e-08 227.48 1.941e-07 227.477V22L3.00165 22.4021Z" fill="#F8E9E7"/>
</svg>
