<svg width="375" height="279" viewBox="0 0 375 279" fill="none" xmlns="http://www.w3.org/2000/svg">
<path d="M379.571 268.273C376.268 272.354 370.446 274.59 360.538 275.218C342.736 276.356 325.215 271.02 307.469 271.02C268.843 271.059 230.274 271.255 191.648 271.137C154.589 271.02 116.971 268.548 80.0245 272.197C56.793 274.472 8.42664 288.518 -11.5021 267.999C-21.6344 257.562 -16.8761 232.06 -16.9321 217.857C-16.9881 197.455 -22.2501 15.9026 -1.76164 7.03559C16.3197 -0.772068 38.0958 8.44803 56.681 8.05568C82.7115 7.46717 108.742 6.91788 134.828 6.32937C184.93 5.2308 206.767 0.169556 256.924 0.169556C284.634 0.169556 298.681 6.3294 326.391 8.05572C344.304 9.19352 405.835 -10.9089 379.571 86.0048C378.731 100.129 381.642 219.348 382.538 233.472C383.602 250.304 384.889 261.682 379.571 268.273Z" fill="#F8E9E7"/>
</svg>
