<svg width="932" height="476" viewBox="0 0 932 476" fill="none" xmlns="http://www.w3.org/2000/svg">
<path opacity="0.5" d="M917.169 456.923C909.549 463.875 896.119 467.686 873.261 468.756C832.194 470.694 791.773 461.603 750.835 461.603C661.728 461.669 572.75 462.004 483.643 461.803C398.151 461.603 311.369 457.391 226.136 463.608C172.542 467.485 60.9644 491.417 14.9903 456.455C-8.38425 438.673 2.59273 395.221 2.46358 371.022C2.33444 336.26 -9.8048 26.924 37.4608 11.816C79.1733 -1.48694 129.409 14.2226 172.284 13.5541C232.334 12.5514 292.385 11.6155 352.565 10.6128C468.146 8.74098 518.521 0.117432 634.231 0.117432C698.156 0.117432 730.561 10.6128 794.486 13.5542C835.811 15.4928 977.758 -18.7584 917.169 146.367C915.232 170.433 921.947 373.562 924.013 397.628C926.467 426.306 929.437 445.693 917.169 456.923Z" fill="#FBF0E5"/>
</svg>
