<svg width="303" height="261" viewBox="0 0 303 261" fill="none" xmlns="http://www.w3.org/2000/svg">
<path d="M297.502 250.955C294.839 254.771 290.146 256.863 282.158 257.45C267.808 258.515 253.683 253.524 239.377 253.524C208.239 253.56 177.146 253.744 146.007 253.634C116.133 253.524 85.8068 251.211 56.0224 254.625C37.2943 256.753 -1.69618 269.892 -17.7617 250.698C-25.9299 240.935 -22.094 217.08 -22.1391 203.795C-22.1842 184.711 -26.4263 14.8863 -9.90945 6.59206C4.66685 -0.711242 22.2216 7.91326 37.2041 7.54626C58.1885 6.99576 79.173 6.48196 100.203 5.93146C140.592 4.90386 158.196 0.169556 198.63 0.169556C220.968 0.169556 232.292 5.93149 254.631 7.54629C269.072 8.61059 318.675 -10.1932 297.502 80.4601C296.825 93.6721 299.171 205.19 299.893 218.402C300.751 234.146 301.789 244.789 297.502 250.955Z" fill="#F8E9E7"/>
</svg>
