<svg width="257" height="476" viewBox="0 0 257 476" fill="none" xmlns="http://www.w3.org/2000/svg">
<path opacity="0.5" d="M252.91 457.592C250.809 464.544 247.106 468.354 240.803 469.424C229.478 471.363 218.332 462.271 207.044 462.271C182.472 462.338 157.936 462.672 133.365 462.472C109.791 462.271 85.8602 458.06 62.3571 464.277C47.5787 468.154 16.811 492.086 4.13358 457.124C-2.31197 439.342 0.714947 395.89 0.679336 371.69C0.643725 336.929 -2.70368 27.5924 10.3298 12.4845C21.8321 -0.818487 35.6847 14.8911 47.5075 14.2226C64.0665 13.2198 80.6255 12.284 97.2201 11.2812C129.092 9.40944 142.983 0.785889 174.89 0.785889C192.517 0.785889 201.453 11.2813 219.08 14.2226C230.476 16.1613 269.618 -18.09 252.91 147.035C252.376 171.101 254.228 374.231 254.798 398.296C255.474 426.975 256.293 446.361 252.91 457.592Z" fill="#FBF0E5"/>
</svg>
