<svg width="375" height="437" viewBox="0 0 375 437" fill="none" xmlns="http://www.w3.org/2000/svg">
<path fill-rule="evenodd" clip-rule="evenodd" d="M375 203.667V436L1.85731e-06 437V227.504C-6.20573e-07 227.489 -6.17635e-07 227.474 1.85731e-06 227.459V22L0.781678 22.4031C0.781681 22.1005 0.781682 21.7995 0.781682 21.5C14.0168 14.1967 41.0608 7.7437 54.6647 7.3767C64.342 7.09711 74.0194 6.82697 83.7021 6.55669L83.703 6.55667L83.7049 6.55662C93.0855 6.29477 102.471 6.03278 111.867 5.7619C128.702 5.29017 141.177 4.0373 153.299 2.81988C167.584 1.38533 181.378 0 201.238 0C212.527 0 220.718 1.785 229.26 3.6464C236.065 5.12931 243.092 6.66072 252.086 7.37674C253.918 7.52543 256.373 7.28633 259.189 7.0121C276.528 5.32338 307.551 2.30205 291.012 80.2906C290.664 87.7837 291.198 126.897 291.846 161.764L292.561 161.898C301.002 163.484 309.719 165.121 320.876 165.886C323.148 166.045 326.193 165.79 329.686 165.496C346.246 164.106 372.865 161.872 374.879 198.962L375 199V203.491C375 203.55 375 203.608 375 203.667Z" fill="#F8E9E7"/>
</svg>
