<svg width="826" height="168" viewBox="0 0 826 168" fill="none" xmlns="http://www.w3.org/2000/svg">
<path d="M812.534 161.789C805.792 164.152 793.909 165.447 773.685 165.81C737.35 166.469 701.587 163.379 665.366 163.379C586.526 163.402 507.8 163.516 428.96 163.448C353.32 163.379 276.537 161.948 201.125 164.061C153.707 165.379 54.9854 173.511 14.3086 161.63C-6.37259 155.588 2.34009 140.822 2.22583 132.598C1.11209 120.785 2.85115 33.5788 0.33489 10.1234C-2.18137 -13.332 115.544 11.3501 153.478 11.123C206.609 10.7822 259.74 10.4642 312.986 10.1234C415.249 9.48736 459.82 6.5569 562.198 6.5569C618.757 6.5569 647.428 10.1235 703.987 11.123C740.551 11.7818 866.142 0.142473 812.534 56.2556C810.82 64.4336 816.761 133.461 818.59 141.639C820.76 151.385 823.388 157.973 812.534 161.789Z" fill="#F8E9E7"/>
</svg>
