<svg width="15" height="18" viewBox="0 0 15 18" fill="none" xmlns="http://www.w3.org/2000/svg">
<path d="M2.22521 17.2501C2.15021 17.2471 2.10121 17.2421 2.05221 17.2341C1.62521 17.1721 1.24621 16.9471 0.986212 16.5991C0.726212 16.2511 0.617212 15.8231 0.679212 15.3931L1.89321 6.67312C1.95621 5.86112 2.61421 5.22612 3.42921 5.19312H3.74221V4.44311C3.74221 2.37511 5.42421 0.693115 7.49221 0.693115C9.56021 0.693115 11.2422 2.37511 11.2422 4.44311V5.19312C11.2422 5.19312 11.5482 5.19312 11.5532 5.19312C12.3702 5.22512 13.0282 5.86012 13.0912 6.67312L14.3052 15.3971C14.3122 15.4441 14.3162 15.4901 14.3192 15.5361C14.3662 16.4351 13.6762 17.2021 12.7812 17.2491L2.24221 17.2501C2.23621 17.2501 2.23121 17.2501 2.22521 17.2501ZM3.47021 6.69212C3.43221 6.69612 3.39121 6.73611 3.38821 6.79212C3.38721 6.80912 3.38521 6.82912 3.38221 6.85012L2.16321 15.6041C2.15821 15.6411 2.16621 15.6741 2.18621 15.7011C2.20721 15.7291 2.23421 15.7451 2.26921 15.7501H12.7422C12.7702 15.7481 12.8252 15.6881 12.8222 15.6191L11.6022 6.85412C11.5992 6.83612 11.5972 6.81712 11.5962 6.79812C11.5932 6.73712 11.5512 6.69512 11.4962 6.69212H3.47021ZM9.74221 5.19212V4.44212C9.74221 3.20112 8.73321 2.19212 7.49221 2.19212C6.25121 2.19212 5.24221 3.20112 5.24221 4.44212V5.19212H9.74221Z" fill="#3E3939"/>
</svg>
