<svg width="143" height="143" viewBox="0 0 143 143" fill="none" xmlns="http://www.w3.org/2000/svg">
<g filter="url(#filter0_d)">
<circle cx="69.5" cy="69.5" r="55" stroke="white"/>
<mask id="path-2-outside-1" maskUnits="userSpaceOnUse" x="47" y="65.9753" width="50" height="14" fill="black">
<rect fill="white" x="47" y="65.9753" width="50" height="14"/>
<path fill-rule="evenodd" clip-rule="evenodd" d="M95.6898 73.1114H95.9999V72.8392C85.9329 72.8392 82.508 67.0248 82.4821 66.9753L82.2486 67.099C82.2745 67.1732 84.9728 71.7504 92.5229 72.8639H48V73.1113H48.2594V73.1114H92.2634C84.7134 74.2496 82.0151 78.8268 81.9892 78.8763L82.2227 79C82.2239 78.9983 82.2267 78.9938 82.2313 78.9865C82.4305 78.6694 85.9117 73.1305 95.6898 73.1114Z"/>
</mask>
<path fill-rule="evenodd" clip-rule="evenodd" d="M95.6898 73.1114H95.9999V72.8392C85.9329 72.8392 82.508 67.0248 82.4821 66.9753L82.2486 67.099C82.2745 67.1732 84.9728 71.7504 92.5229 72.8639H48V73.1113H48.2594V73.1114H92.2634C84.7134 74.2496 82.0151 78.8268 81.9892 78.8763L82.2227 79C82.2239 78.9983 82.2267 78.9938 82.2313 78.9865C82.4305 78.6694 85.9117 73.1305 95.6898 73.1114Z" fill="#FFFCF9"/>
<path d="M95.9999 73.1114V73.6114H96.4999V73.1114H95.9999ZM95.6898 73.1114V72.6114L95.6888 72.6114L95.6898 73.1114ZM95.9999 72.8392H96.4999V72.3392H95.9999V72.8392ZM82.4821 66.9753L82.9249 66.7431L82.6917 66.2984L82.248 66.5335L82.4821 66.9753ZM82.2486 67.099L82.0145 66.6572L81.6348 66.8583L81.7766 67.264L82.2486 67.099ZM92.5229 72.8639V73.3639L92.5958 72.3692L92.5229 72.8639ZM48 72.8639V72.3639H47.5V72.8639H48ZM48 73.1113H47.5V73.6113H48V73.1113ZM48.2594 73.1113H48.7594V72.6113H48.2594V73.1113ZM48.2594 73.1114H47.7594V73.6114H48.2594V73.1114ZM92.2634 73.1114L92.338 73.6058L92.2634 72.6114V73.1114ZM81.9892 78.8763L81.5464 78.6441L81.3152 79.085L81.7551 79.3181L81.9892 78.8763ZM82.2227 79L81.9886 79.4418L82.3792 79.6487L82.6325 79.2865L82.2227 79ZM82.2313 78.9865L82.6546 79.2526L82.6546 79.2526L82.2313 78.9865ZM95.9999 72.6114H95.6898V73.6114H95.9999V72.6114ZM95.4999 72.8392V73.1114H96.4999V72.8392H95.4999ZM82.0393 67.2075C82.129 67.3785 85.7029 73.3392 95.9999 73.3392V72.3392C86.1629 72.3392 82.8871 66.671 82.9249 66.7431L82.0393 67.2075ZM82.4827 67.5408L82.7162 67.4171L82.248 66.5335L82.0145 66.6572L82.4827 67.5408ZM92.5958 72.3692C88.9148 71.8264 86.4339 70.4429 84.8759 69.2008C84.0955 68.5786 83.5446 67.9902 83.1898 67.5575C83.0125 67.3411 82.8846 67.1642 82.8019 67.042C82.7605 66.9809 82.7309 66.9342 82.7125 66.9039C82.7032 66.8886 82.6975 66.8788 82.695 66.8743C82.6806 66.8486 82.7036 66.8855 82.7206 66.934L81.7766 67.264C81.7856 67.2898 81.795 67.3096 81.7973 67.3145C81.8013 67.323 81.8049 67.3302 81.8075 67.3352C81.8127 67.3453 81.8181 67.3551 81.8228 67.3635C81.8325 67.3807 81.8444 67.401 81.8581 67.4235C81.8857 67.469 81.9242 67.5294 81.9738 67.6026C82.0731 67.7494 82.2193 67.9509 82.4165 68.1915C82.8109 68.6727 83.4113 69.3121 84.2525 69.9827C85.9376 71.3261 88.5809 72.7879 92.4499 73.3585L92.5958 72.3692ZM48 73.3639H92.5229V72.3639H48V73.3639ZM48.5 73.1113V72.8639H47.5V73.1113H48.5ZM48.2594 72.6113H48V73.6113H48.2594V72.6113ZM48.7594 73.1114V73.1113H47.7594V73.1114H48.7594ZM92.2634 72.6114H48.2594V73.6114H92.2634V72.6114ZM82.432 79.1085C82.4038 79.1622 84.9835 74.7145 92.338 73.6058L92.1889 72.617C84.4434 73.7847 81.6264 78.4914 81.5464 78.6441L82.432 79.1085ZM82.4568 78.5581L82.2233 78.4344L81.7551 79.3181L81.9886 79.4418L82.4568 78.5581ZM81.808 78.7204C81.8054 78.7245 81.8043 78.7263 81.8036 78.7273C81.8033 78.7278 81.8038 78.7271 81.8046 78.7257C81.8051 78.725 81.806 78.7237 81.8071 78.722C81.8082 78.7204 81.8102 78.7173 81.8129 78.7134L82.6325 79.2865C82.6406 79.2749 82.6477 79.2636 82.6478 79.2634C82.65 79.26 82.6525 79.2558 82.6546 79.2526L81.808 78.7204ZM95.6888 72.6114C85.6781 72.6309 82.0605 78.3186 81.8079 78.7205L82.6546 79.2526C82.8006 79.0203 86.1453 73.63 95.6907 73.6114L95.6888 72.6114Z" fill="#FFFCF9" mask="url(#path-2-outside-1)"/>
</g>
<defs>
<filter id="filter0_d" x="0" y="0" width="143" height="143" filterUnits="userSpaceOnUse" color-interpolation-filters="sRGB">
<feFlood flood-opacity="0" result="BackgroundImageFix"/>
<feColorMatrix in="SourceAlpha" type="matrix" values="0 0 0 0 0 0 0 0 0 0 0 0 0 0 0 0 0 0 127 0"/>
<feOffset dx="2" dy="2"/>
<feGaussianBlur stdDeviation="8"/>
<feColorMatrix type="matrix" values="0 0 0 0 0 0 0 0 0 0 0 0 0 0 0 0 0 0 0.5 0"/>
<feBlend mode="normal" in2="BackgroundImageFix" result="effect1_dropShadow"/>
<feBlend mode="normal" in="SourceGraphic" in2="effect1_dropShadow" result="shape"/>
</filter>
</defs>
</svg>
