<svg width="54" height="54" viewBox="0 0 54 54" fill="none" xmlns="http://www.w3.org/2000/svg">
<circle cx="27" cy="27" r="27" fill="#F8E9E7"/>
<path fill-rule="evenodd" clip-rule="evenodd" d="M13.6667 27.0001C13.6667 19.6401 19.6401 13.6667 27.0001 13.6667C34.3601 13.6667 40.3334 19.6401 40.3334 27.0001C40.3334 34.3601 34.3601 40.3334 27.0001 40.3334C19.6401 40.3334 13.6667 34.3601 13.6667 27.0001ZM28.3334 32.3334V35.0001H25.6667V32.3334H28.3334ZM27.0001 37.6667C21.1201 37.6667 16.3334 32.8801 16.3334 27.0001C16.3334 21.1201 21.1201 16.3334 27.0001 16.3334C32.8801 16.3334 37.6667 21.1201 37.6667 27.0001C37.6667 32.8801 32.8801 37.6667 27.0001 37.6667ZM21.6667 24.3334C21.6667 21.3867 24.0534 19.0001 27.0001 19.0001C29.9467 19.0001 32.3334 21.3867 32.3334 24.3334C32.3334 26.044 31.2801 26.9645 30.2544 27.8608C29.2814 28.7111 28.3334 29.5396 28.3334 31.0001H25.6667C25.6667 28.5717 26.9229 27.6089 28.0273 26.7623C28.8937 26.0982 29.6667 25.5057 29.6667 24.3334C29.6667 22.8667 28.4667 21.6667 27.0001 21.6667C25.5334 21.6667 24.3334 22.8667 24.3334 24.3334H21.6667Z" fill="#C79792"/>
</svg>
