<svg width="23" height="20" viewBox="0 0 23 20" fill="none" xmlns="http://www.w3.org/2000/svg">
<path d="M16.4562 0.150593C14.9018 0.123167 13.3974 0.700153 12.26 1.75999L11.5 2.50999L10.74 1.75999C9.60259 0.700153 8.09822 0.123167 6.54381 0.150593C4.9894 0.178019 3.50632 0.807714 2.40702 1.90702C1.30771 3.00632 0.678019 4.4894 0.650593 6.04381C0.623167 7.59822 1.20015 9.10259 2.25999 10.24L10.79 18.78C10.883 18.8737 10.9936 18.9481 11.1154 18.9989C11.2373 19.0497 11.368 19.0758 11.5 19.0758C11.632 19.0758 11.7627 19.0497 11.8846 18.9989C12.0064 18.9481 12.117 18.8737 12.21 18.78L20.74 10.24C21.7998 9.10259 22.3768 7.59822 22.3494 6.04381C22.322 4.4894 21.6923 3.00632 20.593 1.90702C19.4937 0.807714 18.0106 0.178019 16.4562 0.150593Z" fill="#E4C2BE"/>
</svg>
