<svg width="16" height="16" viewBox="0 0 16 16" fill="none" xmlns="http://www.w3.org/2000/svg">
<path d="M13.6189 1.97608L1.90924 12.6212C1.7367 12.7781 1.6336 12.9852 1.62261 13.197C1.61163 13.4089 1.69365 13.6081 1.85065 13.7508C2.00764 13.8935 2.22675 13.9681 2.45976 13.9581C2.69277 13.9481 2.92061 13.8544 3.09314 13.6975L14.8028 3.05235C14.9754 2.8955 15.0785 2.68838 15.0894 2.47655C15.1004 2.26472 15.0184 2.06554 14.8614 1.92282C14.7044 1.78009 14.4853 1.70552 14.2523 1.71551C14.0193 1.7255 13.7915 1.81923 13.6189 1.97608Z" fill="#513232"/>
<path d="M14.8029 12.6213L3.09317 1.97616C2.92063 1.81932 2.6928 1.72559 2.45979 1.7156C2.22677 1.70561 2.00767 1.78018 1.85067 1.9229C1.69368 2.06563 1.61165 2.26481 1.62264 2.47664C1.63363 2.68847 1.73673 2.89559 1.90926 3.05244L13.6189 13.6976C13.7915 13.8545 14.0193 13.9482 14.2523 13.9582C14.4853 13.9682 14.7044 13.8936 14.8614 13.7509C15.0184 13.6081 15.1005 13.409 15.0895 13.1971C15.0785 12.9853 14.9754 12.7782 14.8029 12.6213Z" fill="#513232"/>
</svg>
