<svg width="16" height="17" viewBox="0 0 16 17" fill="none" xmlns="http://www.w3.org/2000/svg">
<g clip-path="url(#clip0)">
<path d="M10.925 7.78345H0.575C0.4225 7.78345 0.276247 7.86773 0.168414 8.01776C0.0605802 8.16779 0 8.37127 0 8.58345C0 8.79562 0.0605802 8.9991 0.168414 9.14913C0.276247 9.29916 0.4225 9.38345 0.575 9.38345H10.925C11.0775 9.38345 11.2238 9.29916 11.3316 9.14913C11.4394 8.9991 11.5 8.79562 11.5 8.58345C11.5 8.37127 11.4394 8.16779 11.3316 8.01776C11.2238 7.86773 11.0775 7.78345 10.925 7.78345Z" fill="#3E3939"/>
<path d="M0.8 4.5834H15.2C15.4122 4.5834 15.6157 4.49911 15.7657 4.34908C15.9157 4.19905 16 3.99557 16 3.7834C16 3.57123 15.9157 3.36774 15.7657 3.21771C15.6157 3.06768 15.4122 2.9834 15.2 2.9834H0.8C0.587827 2.9834 0.384344 3.06768 0.234315 3.21771C0.0842855 3.36774 0 3.57123 0 3.7834C0 3.99557 0.0842855 4.19905 0.234315 4.34908C0.384344 4.49911 0.587827 4.5834 0.8 4.5834Z" fill="#3E3939"/>
</g>
<defs>
<clipPath id="clip0">
<rect y="0.583496" width="16" height="16" fill="white"/>
</clipPath>
</defs>
</svg>
