<svg width="54" height="52" viewBox="0 0 54 52" fill="none" xmlns="http://www.w3.org/2000/svg">
<ellipse cx="27" cy="25.9685" rx="27" ry="25.552" fill="#F8E9E7"/>
<path fill-rule="evenodd" clip-rule="evenodd" d="M27.0001 17.0286C28.4534 15.4134 30.6801 14.3914 33.0001 14.3914C37.1067 14.3914 40.3334 17.445 40.3334 21.3314C40.3334 26.0972 35.8075 29.9812 28.9503 35.8658L28.9334 35.8803L27.0001 37.5459L25.0667 35.8929L25.0141 35.8477C18.1769 29.9677 13.6667 26.0889 13.6667 21.3314C13.6667 17.445 16.8934 14.3914 21.0001 14.3914C23.3201 14.3914 25.5467 15.4134 27.0001 17.0286ZM27.0001 34.139L27.1334 34.0128C33.4801 28.5743 37.6667 24.9781 37.6667 21.3314C37.6667 18.8078 35.6667 16.915 33.0001 16.915C30.9467 16.915 28.9467 18.1642 28.2534 19.8929H25.7601C25.0534 18.1642 23.0534 16.915 21.0001 16.915C18.3334 16.915 16.3334 18.8078 16.3334 21.3314C16.3334 24.9781 20.5201 28.5743 26.8667 34.0128L27.0001 34.139Z" fill="#C79792"/>
</svg>
