<svg width="54" height="52" viewBox="0 0 54 52" fill="none" xmlns="http://www.w3.org/2000/svg">
<ellipse cx="27" cy="25.552" rx="27" ry="25.552" fill="#F8E9E7"/>
<path fill-rule="evenodd" clip-rule="evenodd" d="M27.0001 12.9338C19.6401 12.9338 13.6667 18.5868 13.6667 25.5521C13.6667 32.5174 19.6401 38.1704 27.0001 38.1704C34.3601 38.1704 40.3334 32.5174 40.3334 25.5521C40.3334 18.5868 34.3601 12.9338 27.0001 12.9338ZM27.0001 35.6468C21.1201 35.6468 16.3334 31.1168 16.3334 25.5521C16.3334 19.9875 21.1201 15.4575 27.0001 15.4575C32.8801 15.4575 37.6667 19.9875 37.6667 25.5521C37.6667 31.1168 32.8801 35.6468 27.0001 35.6468ZM24.2934 22.3597C24.2934 23.2808 25.0534 23.8991 27.4134 24.467C29.7601 25.0474 32.2801 26.0064 32.2934 28.7824C32.2801 30.814 30.6801 31.9117 28.6534 32.2777V34.3849H25.5334V32.2398C23.5334 31.8487 21.8534 30.6373 21.7201 28.4922H24.0134C24.1334 29.6531 24.9734 30.5616 27.1067 30.5616C29.3867 30.5616 29.9067 29.4764 29.9067 28.8076C29.9067 27.8991 29.3867 27.0285 26.7867 26.448C23.8934 25.7919 21.9068 24.6562 21.9068 22.3976C21.9068 20.4922 23.5201 19.2556 25.5334 18.8518V16.7193H28.6401V18.8771C30.8001 19.3818 31.8934 20.9338 31.9601 22.6247H29.6801C29.6267 21.3881 28.9334 20.5553 27.0934 20.5553C25.3468 20.5553 24.2934 21.2998 24.2934 22.3597Z" fill="#C79792"/>
</svg>
