<svg width="54" height="54" viewBox="0 0 54 54" fill="none" xmlns="http://www.w3.org/2000/svg">
<circle cx="27" cy="27" r="27" fill="#F8E9E7"/>
<path fill-rule="evenodd" clip-rule="evenodd" d="M27.0001 13.6667C19.6401 13.6667 13.6667 19.6401 13.6667 27.0001C13.6667 34.3601 19.6401 40.3334 27.0001 40.3334C34.3601 40.3334 40.3334 34.3601 40.3334 27.0001C40.3334 19.6401 34.3601 13.6667 27.0001 13.6667ZM27.0001 37.6667C21.1201 37.6667 16.3334 32.8801 16.3334 27.0001C16.3334 21.1201 21.1201 16.3334 27.0001 16.3334C32.8801 16.3334 37.6667 21.1201 37.6667 27.0001C37.6667 32.8801 32.8801 37.6667 27.0001 37.6667ZM24.2934 23.6267C24.2934 24.6001 25.0534 25.2534 27.4134 25.8534C29.7601 26.4667 32.2801 27.4801 32.2934 30.4134C32.2801 32.5601 30.6801 33.7201 28.6534 34.1067V36.3334H25.5334V34.0667C23.5334 33.6534 21.8534 32.3734 21.7201 30.1067H24.0134C24.1334 31.3334 24.9734 32.2934 27.1067 32.2934C29.3867 32.2934 29.9067 31.1467 29.9067 30.4401C29.9067 29.4801 29.3867 28.5601 26.7867 27.9467C23.8934 27.2534 21.9068 26.0534 21.9068 23.6667C21.9068 21.6534 23.5201 20.3467 25.5334 19.9201V17.6667H28.6401V19.9467C30.8001 20.4801 31.8934 22.1201 31.9601 23.9067H29.6801C29.6267 22.6001 28.9334 21.7201 27.0934 21.7201C25.3468 21.7201 24.2934 22.5067 24.2934 23.6267Z" fill="#C79792"/>
</svg>
