<svg width="54" height="52" viewBox="0 0 54 52" fill="none" xmlns="http://www.w3.org/2000/svg">
<ellipse cx="27" cy="25.9685" rx="27" ry="25.552" fill="#F8E9E7"/>
<path d="M34.5268 18.8393C32.5934 17.0097 29.9401 15.874 26.9934 15.874C21.1001 15.874 16.3401 20.3914 16.3401 25.9687C16.3401 31.5459 21.1001 36.0633 26.9934 36.0633C31.9668 36.0633 36.1134 32.8456 37.3001 28.4923H34.5268C33.4334 31.4324 30.4734 33.5396 26.9934 33.5396C22.5801 33.5396 18.9934 30.1453 18.9934 25.9687C18.9934 21.792 22.5801 18.3977 26.9934 18.3977C29.2068 18.3977 31.1801 19.2683 32.6201 20.6437L28.3268 24.7068H37.6601V15.874L34.5268 18.8393Z" fill="#C79792"/>
</svg>
