<svg width="54" height="54" viewBox="0 0 54 54" fill="none" xmlns="http://www.w3.org/2000/svg">
<circle cx="27" cy="27" r="27" fill="#F8E9E7"/>
<path fill-rule="evenodd" clip-rule="evenodd" d="M37.6666 21.6666H33.6666V16.3333H14.9999C13.5333 16.3333 12.3333 17.5333 12.3333 18.9999V33.6666H14.9999C14.9999 35.8799 16.7866 37.6666 18.9999 37.6666C21.2133 37.6666 22.9999 35.8799 22.9999 33.6666H30.9999C30.9999 35.8799 32.7866 37.6666 34.9999 37.6666C37.2133 37.6666 38.9999 35.8799 38.9999 33.6666H41.6666V26.9999L37.6666 21.6666ZM36.9999 23.6666L39.6133 26.9999H33.6666V23.6666H36.9999ZM17.6666 33.6666C17.6666 34.3999 18.2666 34.9999 18.9999 34.9999C19.7333 34.9999 20.3333 34.3999 20.3333 33.6666C20.3333 32.9333 19.7333 32.3333 18.9999 32.3333C18.2666 32.3333 17.6666 32.9333 17.6666 33.6666ZM21.9599 30.9999C21.2266 30.1866 20.1866 29.6666 18.9999 29.6666C17.8133 29.6666 16.7733 30.1866 16.0399 30.9999H14.9999V18.9999H30.9999V30.9999H21.9599ZM33.6666 33.6666C33.6666 34.3999 34.2666 34.9999 34.9999 34.9999C35.7333 34.9999 36.3333 34.3999 36.3333 33.6666C36.3333 32.9333 35.7333 32.3333 34.9999 32.3333C34.2666 32.3333 33.6666 32.9333 33.6666 33.6666Z" fill="#C79792"/>
</svg>
