<svg width="37" height="40" viewBox="0 0 37 40" fill="none" xmlns="http://www.w3.org/2000/svg">
<g clip-path="url(#clip0)">
<path d="M28.0969 35H22.4252" stroke="#E4C2BE" stroke-width="1.5" stroke-linecap="round" stroke-linejoin="round"/>
<path d="M18.0969 35H15.2602V23.75H30.2602V33.75" stroke="#E4C2BE" stroke-width="1.5" stroke-linecap="round" stroke-linejoin="round"/>
<path d="M30.2602 33.7501V26.5984L32.9635 27.4317C33.6118 27.612 34.1851 27.9959 34.5986 28.5267C35.0121 29.0576 35.2441 29.7073 35.2602 30.3801V34.2317C35.2515 34.4442 35.1589 34.6446 35.0027 34.789C34.8465 34.9333 34.6394 35.0098 34.4269 35.0017H32.4269" stroke="#E4C2BE" stroke-width="1.5" stroke-linecap="round" stroke-linejoin="round"/>
<path d="M12.7602 17.555V10.815C12.7602 10.5989 12.6743 10.3916 12.5215 10.2387C12.3686 10.0859 12.1613 10 11.9452 10H6.07686C5.96969 9.99978 5.86353 10.0207 5.76446 10.0616C5.66539 10.1024 5.57535 10.1624 5.49949 10.2381C5.42363 10.3138 5.36345 10.4037 5.32239 10.5027C5.28133 10.6017 5.26019 10.7078 5.26019 10.815V17.555" stroke="#E4C2BE" stroke-width="1.5" stroke-linecap="round" stroke-linejoin="round"/>
<path d="M-2.23981 8.75L9.01019 1.25L20.2602 8.75" stroke="#E4C2BE" stroke-width="1.5" stroke-linecap="round" stroke-linejoin="round"/>
<path d="M17.7602 17.5533V7.08325" stroke="#E4C2BE" stroke-width="1.5" stroke-linecap="round" stroke-linejoin="round"/>
<path d="M0.260193 7.08325L0.265943 17.5549" stroke="#E4C2BE" stroke-width="1.5" stroke-linecap="round" stroke-linejoin="round"/>
<path d="M20.2602 38.75C21.6409 38.75 22.7602 37.6307 22.7602 36.25C22.7602 34.8693 21.6409 33.75 20.2602 33.75C18.8795 33.75 17.7602 34.8693 17.7602 36.25C17.7602 37.6307 18.8795 38.75 20.2602 38.75Z" stroke="#E4C2BE" stroke-width="1.5" stroke-linecap="round" stroke-linejoin="round"/>
<path d="M30.2602 38.75C31.6409 38.75 32.7602 37.6307 32.7602 36.25C32.7602 34.8693 31.6409 33.75 30.2602 33.75C28.8795 33.75 27.7602 34.8693 27.7602 36.25C27.7602 37.6307 28.8795 38.75 30.2602 38.75Z" stroke="#E4C2BE" stroke-width="1.5" stroke-linecap="round" stroke-linejoin="round"/>
<path d="M7.76019 21.25V22.5" stroke="#E4C2BE" stroke-width="1.5" stroke-linecap="round" stroke-linejoin="round"/>
<path d="M7.76019 27.5V28.75" stroke="#E4C2BE" stroke-width="1.5" stroke-linecap="round" stroke-linejoin="round"/>
<path d="M7.76019 33.75C7.76019 34.413 8.02358 35.0489 8.49243 35.5178C8.96127 35.9866 9.59715 36.25 10.2602 36.25" stroke="#E4C2BE" stroke-width="1.5" stroke-linecap="round" stroke-linejoin="round"/>
</g>
<defs>
<clipPath id="clip0">
<rect x="-3.49805" width="40" height="40" fill="white"/>
</clipPath>
</defs>
</svg>
